<svg id="Calque_1" data-name="Calque 1" xmlns="http://www.w3.org/2000/svg" width="32" height="32" viewBox="0 0 32 32"><title>cluster</title><polygon points="13 24.89 13 19.11 8 16.23 3 19.11 3 24.89 8 27.77 13 24.89" fill="#333"/><path d="M8,13.92,1,18V26l7,4,7-4V18Zm6,11.54L8,28.93,2,25.46V18.54l6-3.47,6,3.47Z" fill="#333"/><polygon points="21 10.89 21 5.11 16 2.23 11 5.11 11 10.89 16 13.77 21 10.89" fill="#333"/><path d="M16-.08,9,4V12l7,4,7-4V4Zm6,11.54-6,3.47-6-3.47V4.54l6-3.47,6,3.47Z" fill="#333"/><polygon points="29 24.89 29 19.11 24 16.23 19 19.11 19 24.89 24 27.77 29 24.89" fill="#333"/><path d="M24,13.92l-7,4V26l7,4,7-4V18Zm6,11.54-6,3.47-6-3.47V18.54l6-3.47,6,3.47Z" fill="#333"/></svg>