<svg id="Calque_1" data-name="Calque 1" xmlns="http://www.w3.org/2000/svg" width="32" height="32" viewBox="0 0 32 32"><title>consumers</title><path d="M28,5v7H4V5H28m1-1H3v9H29V4Z" fill="#333"/><rect x="5" y="6" width="11" height="5" fill="#333"/><rect x="17" y="6" width="6" height="5" fill="#333"/><circle cx="8.5" cy="20.5" r="3.5" fill="#333"/><path d="M12.05,23.24a4.46,4.46,0,0,1-7.1,0A10.8,10.8,0,0,0,3,28H14A10.8,10.8,0,0,0,12.05,23.24Z" fill="#333"/><circle cx="23.5" cy="20.5" r="3.5" fill="#333"/><path d="M27.05,23.24a4.46,4.46,0,0,1-7.1,0A10.8,10.8,0,0,0,18,28H29A10.8,10.8,0,0,0,27.05,23.24Z" fill="#333"/></svg>