<?xml version="1.0" encoding="UTF-8" standalone="no"?>
<svg
   xmlns:dc="http://purl.org/dc/elements/1.1/"
   xmlns:cc="http://creativecommons.org/ns#"
   xmlns:rdf="http://www.w3.org/1999/02/22-rdf-syntax-ns#"
   xmlns:svg="http://www.w3.org/2000/svg"
   xmlns="http://www.w3.org/2000/svg"
   xmlns:sodipodi="http://sodipodi.sourceforge.net/DTD/sodipodi-0.dtd"
   xmlns:inkscape="http://www.inkscape.org/namespaces/inkscape"
   id="Calque_1"
   data-name="Calque 1"
   width="64"
   height="64"
   viewBox="0 0 64 64.000002"
   version="1.1"
   sodipodi:docname="logo.svg"
   inkscape:export-filename="/home/anthony/Workspace/franz-manager/src/assets/images/favicon.png"
   inkscape:export-xdpi="96.000008"
   inkscape:export-ydpi="96.000008"
   inkscape:version="0.92.3 (2405546, 2018-03-11)">
  <metadata
     id="metadata1000">
    <rdf:RDF>
      <cc:Work
         rdf:about="">
        <dc:format>image/svg+xml</dc:format>
        <dc:type
           rdf:resource="http://purl.org/dc/dcmitype/StillImage" />
        <dc:title>logo</dc:title>
      </cc:Work>
    </rdf:RDF>
  </metadata>
  <defs
     id="defs998" />
  <sodipodi:namedview
     pagecolor="#ffffff"
     bordercolor="#666666"
     borderopacity="1"
     objecttolerance="10"
     gridtolerance="10"
     guidetolerance="10"
     inkscape:pageopacity="0"
     inkscape:pageshadow="2"
     inkscape:window-width="1920"
     inkscape:window-height="1080"
     id="namedview996"
     showgrid="false"
     inkscape:pagecheckerboard="true"
     inkscape:zoom="4.5395321"
     inkscape:cx="5.3287058"
     inkscape:cy="9.3136629"
     inkscape:window-x="0"
     inkscape:window-y="0"
     inkscape:window-maximized="1"
     inkscape:current-layer="Calque_1" />
  <title
     id="title939">logo</title>
  <path
     id="path993"
     style="fill:#3d3d3d;stroke-width:0.6032716"
     d="M 8.2561838,58.31415 H 8.0872679 c 0.1085889,0.04826 0.211145,0.09653 0.3197338,0.132719 z M 7.3392111,53.970594 c 0.530879,-0.259407 -0.5308789,-1.393558 -0.5308789,-1.393558 0,0 0,0.802352 -0.4283227,0.874744 -0.4283228,0.0724 0,2.063189 -0.4826171,1.303067 -0.4826173,-0.760122 0.5610425,-2.207973 0.1628832,-2.6001 C 5.6621164,51.762621 5.2579245,52.365891 5.0467794,52.902803 4.8356343,53.439715 5.650051,57.20413 8.063137,58.332247 H 8.232053 C 6.434304,56.721513 6.8203975,54.254132 7.3392111,53.970594 Z M 19.875194,50.893909 a 0.70582772,0.70582772 0 1 1 0.06636,-1.097954 0.76615488,0.76615488 0 0 1 -0.06636,1.073823 z m 4.186705,-1.465949 c -0.772188,-0.983334 -3.203372,-0.796319 -3.523107,-0.639469 -0.319733,0.156851 -2.666459,0.295604 -3.649793,0.669631 a 2.1597121,2.1597121 0 0 0 -1.206542,1.44182 7.6253525,7.6253525 0 0 1 3.728218,-1.634866 1.6348659,1.6348659 0 0 0 -1.019529,1.49008 1.7072585,1.7072585 0 0 0 3.414517,0 1.6469314,1.6469314 0 0 0 -1.345295,-1.592636 h 0.05429 c 1.972699,-0.03016 2.413087,1.984763 2.9319,1.876174 0.910941,-0.217178 1.387525,-0.6455 0.615338,-1.610734 z m -1.610735,3.420549 c -0.428323,0.458487 -2.033025,0.953169 -2.612166,1.079856 0.959201,0.28957 3.619629,-0.947136 3.571367,-1.351329 -0.04826,-0.404191 -0.530879,-0.193046 -0.959201,0.271473 z m 4.729649,-3.734251 c 0.802351,-0.265439 -2.292432,-2.292432 -3.788545,-2.907769 -1.496114,-0.615337 -6.635988,-0.989365 -9.169728,-1.309099 -2.533741,-0.319734 -3.734251,2.214006 -3.734251,2.66646 0,0.452454 2.413086,-1.013496 3.305928,-0.742024 0.349897,0.102556 2.304497,0.506749 4.62106,0.947137 a 10.575351,10.575351 0 0 0 -2.220039,0.603271 c -0.561043,0.331799 -1.894273,1.206543 -1.894273,1.719324 0,0.42229 1.574538,-1.134151 2.346726,-1.459917 a 19.757143,19.757143 0 0 1 2.847442,-0.663599 c 3.462779,0.651534 7.245292,1.291001 7.68568,1.146216 z m 13.57361,1.152248 a 0.68772958,0.68772958 0 1 1 -0.506748,-0.941103 0.76615488,0.76615488 0 0 1 0.524846,0.941103 z m 2.714722,3.275765 a 6.4731038,6.4731038 0 0 1 -3.879036,0.675664 c 2.364824,1.453885 6.86523,-0.199079 7.739974,-3.016357 -0.874744,-2.654395 -5.013187,-3.48691 -6.527398,-3.293863 0.603271,0.0724 2.485478,0.374028 2.66646,1.206543 -1.013496,-0.760122 -4.180672,-0.235276 -4.180672,-0.235276 a 1.2065431,1.2065431 0 0 0 0.603271,0.187014 1.3875246,1.3875246 0 0 0 -0.772188,1.453884 1.8701418,1.8701418 0 0 0 3.704088,0 1.5624733,1.5624733 0 0 0 -0.808384,-1.339263 5.1217755,5.1217755 0 0 1 2.660428,1.496115 c 0.693762,0.699794 -0.120654,2.256235 -1.206543,2.865539 z m 18.224832,-0.693762 c 0.639468,-0.91094 1.972698,-5.978422 1.809815,-7.094473 -0.162883,-1.116053 -2.298464,-2.298466 -3.414516,-1.689161 -1.013496,0.548977 -2.207973,1.097954 -2.9319,0.88681 l 0.04826,-0.07842 C 58.581099,42.852302 59.98069,36.3611 60.511569,34.659873 61.042447,32.958648 59.986723,25.900371 59.757478,24.627467 59.528235,23.354564 56.662696,19.505689 56.445518,17.695874 56.22834,15.88606 53.996235,12.145776 53.356768,11.295163 52.717299,10.44455 48.898591,9.2681701 47.692048,8.2003797 46.485504,7.1325888 42.383258,6.7042654 41.212911,6.1733865 40.042564,5.6425075 38.118128,4.7858628 36.519458,4.7858628 c -1.59867,0 -9.941915,0 -13.561544,0.8506127 -3.61963,0.8506128 -9.652345,7.1487685 -11.160524,8.5362925 -1.508179,1.387525 -7.6072542,15.347232 -8.6750448,16.964 -1.0677907,1.616767 1.0677906,8.445801 1.0677906,9.706639 0,1.260838 2.8836379,6.720445 4.3737186,7.040179 l 0.319734,0.603271 c 0.7359913,-0.995397 0,-3.480877 -0.2111451,-5.296724 -0.211145,-1.815847 1.2065431,-2.129548 0.7480567,-3.016357 -0.4584863,-0.88681 2.346726,-3.396419 1.59867,-3.927298 -0.748057,-0.530879 1.387525,-2.775049 2.455314,-4.826173 1.067791,-2.051123 1.972699,0.639468 2.183844,-0.530879 0.211145,-1.170347 -1.206543,-0.748057 -0.05429,-1.707258 1.152249,-0.959202 4.590897,0 5.761244,-1.001431 1.170347,-1.001431 5.761243,0.253374 7.365945,0 1.604703,-0.253374 2.769018,-1.773618 3.61963,0 0.850613,1.773618 4.373719,1.206543 5.869832,0.681697 0.742024,-0.26544 2.521675,0.603271 4.391817,1.640898 l -0.126686,0.03016 c 1.387524,1.707258 6.189566,10.255617 6.080976,11.950809 -0.108588,1.695194 3.734251,3.97556 1.59867,7.359914 -0.971267,1.538342 2.413086,3.770446 2.274333,5.562164 l -0.05429,0.349897 a 1.9907962,1.9907962 0 0 1 -0.301636,0.603271 c -0.271472,0.367996 -0.748057,1.049693 -1.345296,1.924437 h 8.445802 c 1.122085,-2.2864 2.141612,-4.916664 2.509608,-5.435477 z M 8.4070017,52.577036 c 0,0 0.4343556,3.143045 0.8023512,5.737114 H 9.7643628 A 40.123591,40.123591 0 0 1 8.4070017,52.577036 Z M 2.108847,47.014873 C 2.5613006,46.791663 6.1628318,51.73849 6.0602756,51.237774 5.9577194,50.737059 2.0605852,45.313647 1.4211174,45.579086 0.78164953,45.844526 1.7710148,47.449228 2.277763,48.631641 2.0666179,48.010271 1.8434075,47.147592 2.108847,47.014873 Z m 0.168916,1.574539 c 0.1085888,0.313701 0.2051123,0.542944 0.2051123,0.542944 -0.036196,-0.162883 -0.126687,-0.343865 -0.2051123,-0.542944 z m 34.772572,7.402141 c -0.748056,-0.959201 -2.66646,-3.73425 -1.707258,-5.33292 0.959202,-1.598669 5.10971,-3.945396 8.536292,-3.414517 3.426583,0.530879 5.013187,1.067791 5.761244,0.536912 a 1.9666653,1.9666653 0 0 0 0.850613,-1.067791 c -2.666461,-1.809814 -5.544066,-3.305927 -9.917785,-2.346726 -4.373718,0.959201 -8.801732,3.251633 -8.856026,4.373718 -0.05429,1.122086 0.959202,5.224332 0.850612,6.400712 -0.06033,0.681697 -0.603271,1.900305 -0.874743,3.173209 h 5.592327 c 0.150818,-0.965235 0.150818,-1.803783 -0.235276,-2.322597 z"
     inkscape:connector-curvature="0" />
</svg>
