<svg id="Calque_1" data-name="Calque 1" xmlns="http://www.w3.org/2000/svg" width="139.25" height="191.87" viewBox="0 0 139.25 191.87"><title>logo</title><path d="M11.06,186.42a1.56,1.56,0,0,1-1.64,1.26,1.6,1.6,0,0,1-1.68-1.26L4.16,175.25V190a1.37,1.37,0,0,1-1.53,1.53H1.57A1.38,1.38,0,0,1,0,190V166.41a1.37,1.37,0,0,1,1.53-1.52H2.94a1.6,1.6,0,0,1,1.71,1.25L9.38,180.4l4.77-14.26a1.64,1.64,0,0,1,1.71-1.25h1.53a1.36,1.36,0,0,1,1.52,1.52V190a1.37,1.37,0,0,1-1.52,1.53H16.17A1.37,1.37,0,0,1,14.64,190V175.25Z" fill="#3d3d3d"/><path d="M38.43,191.57H37a1.5,1.5,0,0,1-1.64-1.41l-.72-4.54H29.78l-.73,4.54a1.5,1.5,0,0,1-1.64,1.41H26.23a1.24,1.24,0,0,1-1.37-1.64l4.38-23.67a1.53,1.53,0,0,1,1.68-1.37h2.74a1.53,1.53,0,0,1,1.68,1.37l4.46,23.67A1.24,1.24,0,0,1,38.43,191.57ZM34.08,182l-1.86-11.85L30.35,182Z" fill="#3d3d3d"/><path d="M48.26,191.57h-1A1.37,1.37,0,0,1,45.75,190V166.41a1.36,1.36,0,0,1,1.52-1.52h1.6a1.66,1.66,0,0,1,1.72,1.25l5.18,15.25v-15a1.37,1.37,0,0,1,1.53-1.52h1a1.36,1.36,0,0,1,1.52,1.52V190a1.37,1.37,0,0,1-1.52,1.53H56.92a1.65,1.65,0,0,1-1.72-1.26l-5.41-16.08V190A1.38,1.38,0,0,1,48.26,191.57Z" fill="#3d3d3d"/><path d="M79.33,191.57H77.92a1.51,1.51,0,0,1-1.64-1.41l-.72-4.54H70.68L70,190.16a1.5,1.5,0,0,1-1.63,1.41H67.13a1.24,1.24,0,0,1-1.37-1.64l4.38-23.67a1.54,1.54,0,0,1,1.68-1.37h2.75a1.53,1.53,0,0,1,1.67,1.37l4.46,23.67A1.24,1.24,0,0,1,79.33,191.57ZM75,182l-1.87-11.85L71.25,182Z" fill="#3d3d3d"/><path d="M100,179.37v6.86c0,4.12-2.67,5.64-6.71,5.64H93c-4,0-6.71-1.48-6.71-5.64v-16c0-4,2.67-5.64,6.71-5.64h.3c4,0,6.71,1.68,6.71,5.64v2.29A1.36,1.36,0,0,1,98.47,174H97.09a1.36,1.36,0,0,1-1.52-1.52v-1.6c0-1.91-1-2.44-2.44-2.44s-2.44.53-2.44,2.44v14.64c0,1.9,1,2.44,2.44,2.44s2.44-.54,2.44-2.44v-4H94.5A1.36,1.36,0,0,1,93,180.06v-.69a1.36,1.36,0,0,1,1.52-1.52h4A1.36,1.36,0,0,1,100,179.37Z" fill="#3d3d3d"/><path d="M117.3,191.57h-8.77A1.37,1.37,0,0,1,107,190V166.41a1.36,1.36,0,0,1,1.52-1.52h8.65a1.37,1.37,0,0,1,1.53,1.52v.84a1.37,1.37,0,0,1-1.53,1.53h-5.75v7.31H116a1.38,1.38,0,0,1,1.53,1.53v.84A1.37,1.37,0,0,1,116,180h-4.57v7.7h5.87a1.37,1.37,0,0,1,1.52,1.53V190A1.37,1.37,0,0,1,117.3,191.57Z" fill="#3d3d3d"/><path d="M137.77,191.57h-1.33a1.62,1.62,0,0,1-1.72-1.26l-3-9.38H129.5V190a1.38,1.38,0,0,1-1.53,1.53H126.6a1.37,1.37,0,0,1-1.52-1.53V166.41a1.36,1.36,0,0,1,1.52-1.52H132c4,0,6.7,1.6,6.7,5.64v4.76c0,2.56-1.06,4.16-2.89,5l3.24,9.57A1.21,1.21,0,0,1,137.77,191.57Zm-8.27-14.45h2.32c1.45,0,2.44-.53,2.44-2.44v-3.47c0-1.9-1-2.43-2.44-2.43H129.5Z" fill="#3d3d3d"/><rect y="92.45" width="139.25" height="6.17" rx="1.93" ry="1.93" fill="#3d3d3d"/><rect y="154.36" width="139.25" height="6.17" rx="1.93" ry="1.93" fill="#3d3d3d"/><path d="M1.35,147.85V105.56a2.45,2.45,0,0,1,2.72-2.73H19.28A2.45,2.45,0,0,1,22,105.56v1.5a2.45,2.45,0,0,1-2.73,2.73h-10v13.44h7.91A2.45,2.45,0,0,1,19.9,126v1.5a2.45,2.45,0,0,1-2.73,2.72H9.26v17.67a2.45,2.45,0,0,1-2.73,2.73H4.07A2.45,2.45,0,0,1,1.35,147.85Z" fill="#3d3d3d"/><path d="M48.81,150.58H46.43a2.89,2.89,0,0,1-3.07-2.25L38,131.55H34v16.3a2.45,2.45,0,0,1-2.72,2.73H28.83a2.45,2.45,0,0,1-2.73-2.73V105.56a2.45,2.45,0,0,1,2.73-2.73h9.62c7.23,0,12,2.87,12,10.1v8.52c0,4.57-1.91,7.44-5.18,8.87l5.8,17.12C51.68,149.28,50.79,150.58,48.81,150.58ZM34,124.73h4.17c2.59,0,4.36-1,4.36-4.37v-6.2c0-3.42-1.77-4.37-4.36-4.37H34Z" fill="#3d3d3d"/><path d="M78.82,150.58H76.3a2.69,2.69,0,0,1-2.93-2.53l-1.3-8.11H63.34L62,148.05a2.69,2.69,0,0,1-2.93,2.53H57c-1.84,0-2.8-1-2.46-2.94l7.85-42.35a2.75,2.75,0,0,1,3-2.46H70.3a2.75,2.75,0,0,1,3,2.46l8,42.35C81.62,149.55,80.67,150.58,78.82,150.58Zm-7.77-17.19-3.34-21.21-3.35,21.21Z" fill="#3d3d3d"/><path d="M90.28,150.58H88.51a2.45,2.45,0,0,1-2.73-2.73V105.56a2.45,2.45,0,0,1,2.73-2.73h2.86a3,3,0,0,1,3.07,2.25l9.28,27.29V105.56a2.45,2.45,0,0,1,2.72-2.73h1.78a2.45,2.45,0,0,1,2.73,2.73v42.29a2.45,2.45,0,0,1-2.73,2.73h-2.46a3,3,0,0,1-3.07-2.25L93,119.54v28.31A2.45,2.45,0,0,1,90.28,150.58Z" fill="#3d3d3d"/><path d="M138.57,146.76v1.09a2.45,2.45,0,0,1-2.73,2.73H118.45a2.45,2.45,0,0,1-2.73-2.73v-1a8.44,8.44,0,0,1,.61-3.35l13.44-34.1h-10.5a2.45,2.45,0,0,1-2.73-2.73v-1.09a2.45,2.45,0,0,1,2.73-2.73h16.09a2.45,2.45,0,0,1,2.73,2.73v1a8.44,8.44,0,0,1-.61,3.35L124,144h11.8A2.45,2.45,0,0,1,138.57,146.76Z" fill="#3d3d3d"/><path d="M82.69,73.83a1.4,1.4,0,1,0,.84,1.56A1.26,1.26,0,0,0,82.69,73.83Z" fill="#3d3d3d"/><path d="M47.26,74.77A1.17,1.17,0,1,0,49,74.61,1.27,1.27,0,0,0,47.26,74.77Z" fill="#3d3d3d"/><path d="M77.36,84.88c-1.24-1.59-4.42-6.19-2.83-8.84S83,69.5,88.68,70.38s8.31,1.77,9.55.89a3.26,3.26,0,0,0,1.41-1.77c-4.42-3-9.19-5.48-16.44-3.89S68.61,71,68.52,72.86s1.59,8.66,1.41,10.61c-.1,1.13-1,3.15-1.45,5.26h9.27C78,87.13,78,85.74,77.36,84.88Z" fill="#3d3d3d"/><path d="M19.72,72.61c.18.52.34.9.34.9C20,73.24,19.85,72.94,19.72,72.61Z" fill="#3d3d3d"/><path d="M19.44,70c.75-.37,6.72,7.83,6.55,7s-6.63-9.82-7.69-9.38.58,3.1,1.42,5.06C19.37,71.65,19,70.22,19.44,70Z" fill="#3d3d3d"/><path d="M29.88,79.22s.72,5.21,1.33,9.51h.92A66.51,66.51,0,0,1,29.88,79.22Z" fill="#3d3d3d"/><path d="M118.21,79.67c1.06-1.51,3.27-9.91,3-11.76s-3.81-3.81-5.66-2.8c-1.68.91-3.66,1.82-4.86,1.47l.08-.13c2.28-3.35,4.6-14.11,5.48-16.93S115.38,35,115,32.89s-5.13-8.49-5.49-11.49-4.06-9.2-5.12-10.61S97,7.43,95,5.66,86.2,3.18,84.26,2.3,79.13,0,76.48,0,60,0,54,1.41s-16,11.85-18.5,14.15S22.89,41,21.12,43.68s1.77,14,1.77,16.09,4.78,11.14,7.25,11.67l.53,1c1.22-1.65,0-5.77-.35-8.78s2-3.53,1.24-5,3.89-5.63,2.65-6.51,2.3-4.6,4.07-8,3.27,1.06,3.62-.88-2-1.24-.09-2.83,7.61,0,9.55-1.66,9.55.42,12.21,0,4.59-2.94,6,0,7.25,2,9.73,1.13c1.23-.44,4.18,1,7.28,2.72l-.21.05c2.3,2.83,10.26,17,10.08,19.81s6.19,6.59,2.65,12.2c-1.61,2.55,4,6.25,3.77,9.22l-.09.58a3.3,3.3,0,0,1-.5,1c-.45.61-1.24,1.74-2.23,3.19h14C115.91,84.89,117.6,80.53,118.21,79.67Z" fill="#3d3d3d"/><path d="M88,80.82a10.73,10.73,0,0,1-6.43,1.12c3.92,2.41,11.38-.33,12.83-5-1.45-4.4-8.31-5.78-10.82-5.46,1,.12,4.12.62,4.42,2-1.68-1.26-6.93-.39-6.93-.39a2,2,0,0,0,1,.31,2.3,2.3,0,0,0-1.28,2.41,3.1,3.1,0,0,0,6.14,0,2.59,2.59,0,0,0-1.34-2.22A8.49,8.49,0,0,1,90,76.07C91.15,77.23,89.8,79.81,88,80.82Zm-4.5-5.43a1.14,1.14,0,1,1-.84-1.56A1.27,1.27,0,0,1,83.53,75.39Z" fill="#3d3d3d"/><path d="M61,73.48c1.33-.44-3.8-3.8-6.28-4.82s-11-1.64-15.2-2.17-6.19,3.67-6.19,4.42,4-1.68,5.48-1.23c.58.17,3.82.84,7.66,1.57a17.53,17.53,0,0,0-3.68,1c-.93.55-3.14,2-3.14,2.85,0,.7,2.61-1.88,3.89-2.42a32.75,32.75,0,0,1,4.72-1.1C54,72.66,60.27,73.72,61,73.48Z" fill="#3d3d3d"/><path d="M53.16,79.67c-.71.76-3.37,1.58-4.33,1.79,1.59.48,6-1.57,5.92-2.24S53.87,78.9,53.16,79.67Z" fill="#3d3d3d"/><path d="M55.83,74c-1.28-1.63-5.31-1.32-5.84-1.06s-4.42.49-6.05,1.11a3.58,3.58,0,0,0-2,2.39,12.64,12.64,0,0,1,6.18-2.71,2.71,2.71,0,0,0-1.69,2.47,2.83,2.83,0,0,0,5.66,0,2.73,2.73,0,0,0-2.23-2.64h.09c3.27-.05,4,3.29,4.86,3.11C56.32,76.31,57.11,75.6,55.83,74Zm-6.94,2.43A1.17,1.17,0,1,1,49,74.61,1.27,1.27,0,0,1,48.89,76.39Z" fill="#3d3d3d"/><path d="M28.11,81.53c.88-.43-.88-2.31-.88-2.31s0,1.33-.71,1.45,0,3.42-.8,2.16.93-3.66.27-4.31-1.33.35-1.68,1.24,1,7.13,5,9h.28C26.61,86.09,27.25,82,28.11,81.53Z" fill="#3d3d3d"/><path d="M29.63,88.73h-.28c.18.08.35.16.53.22Z" fill="#3d3d3d"/></svg>